HIERARCHY
ROOT pelvis
{
	OFFSET 0.000000 0.892272 -0.000000
	CHANNELS 6 Xposition Yposition Zposition Xrotation Yrotation Zrotation
	JOINT spine
	{
		OFFSET 0.000000 0.000000 0.000000
		CHANNELS 6 Xposition Yposition Zposition Xrotation Yrotation Zrotation
		JOINT spine.001
		{
			OFFSET 0.000000 0.297709 0.015602
			CHANNELS 3 Xrotation Yrotation Zrotation
			JOINT neck
			{
				OFFSET 0.000000 0.295895 -0.036331
				CHANNELS 6 Xposition Yposition Zposition Xrotation Yrotation Zrotation
				JOINT face
				{
					OFFSET 0.000000 0.216790 -0.003784
					CHANNELS 6 Xposition Yposition Zposition Xrotation Yrotation Zrotation
					End Site
					{
						OFFSET 0.000000 -0.008961 0.032263
					}
				}
			}
			JOINT shoulder.L
			{
				OFFSET 0.000000 0.295895 -0.036331
				CHANNELS 6 Xposition Yposition Zposition Yrotation Xrotation Zrotation
				JOINT upper_arm.L
				{
					OFFSET 0.185652 0.000000 0.000000
					CHANNELS 6 Xposition Yposition Zposition Xrotation Yrotation Zrotation
					JOINT forearm.L
					{
						OFFSET 0.320814 0.001104 -0.000133
						CHANNELS 6 Xposition Yposition Zposition Xrotation Yrotation Zrotation
						End Site
						{
							OFFSET 0.264785 -0.001520 0.004500
						}
					}
				}
			}
			JOINT shoulder.R
			{
				OFFSET 0.000000 0.295895 -0.036331
				CHANNELS 6 Xposition Yposition Zposition Yrotation Xrotation Zrotation
				JOINT upper_arm.R
				{
					OFFSET -0.185652 0.000000 0.000000
					CHANNELS 6 Xposition Yposition Zposition Xrotation Yrotation Zrotation
					JOINT forearm.R
					{
						OFFSET -0.315270 0.001104 -0.000133
						CHANNELS 6 Xposition Yposition Zposition Xrotation Yrotation Zrotation
						End Site
						{
							OFFSET -0.253219 -0.001518 0.004298
						}
					}
				}
			}
		}
	}
	JOINT pelvis.L
	{
		OFFSET 0.000000 0.000000 0.000000
		CHANNELS 6 Xposition Yposition Zposition Yrotation Xrotation Zrotation
		End Site
		{
			OFFSET 0.116047 0.000000 0.000000
		}
	}
	JOINT pelvis.R
	{
		OFFSET 0.000000 0.000000 0.000000
		CHANNELS 6 Xposition Yposition Zposition Yrotation Xrotation Zrotation
		End Site
		{
			OFFSET -0.116047 0.000000 0.000000
		}
	}
	JOINT thigh.L
	{
		OFFSET 0.116047 0.000000 0.000000
		CHANNELS 6 Xposition Yposition Zposition Xrotation Yrotation Zrotation
		JOINT shin.L
		{
			OFFSET 0.022487 -0.429086 0.000000
			CHANNELS 6 Xposition Yposition Zposition Xrotation Yrotation Zrotation
			JOINT foot.L
			{
				OFFSET 0.019697 -0.375848 0.000000
				CHANNELS 6 Xposition Yposition Zposition Xrotation Yrotation Zrotation
				End Site
				{
					OFFSET 0.018018 -0.077146 0.183717
				}
			}
		}
	}
	JOINT thigh.R
	{
		OFFSET -0.116047 0.000000 0.000000
		CHANNELS 6 Xposition Yposition Zposition Xrotation Yrotation Zrotation
		JOINT shin.R
		{
			OFFSET -0.022775 -0.434573 0.000000
			CHANNELS 6 Xposition Yposition Zposition Xrotation Yrotation Zrotation
			JOINT foot.R
			{
				OFFSET -0.020023 -0.382054 0.000000
				CHANNELS 6 Xposition Yposition Zposition Xrotation Yrotation Zrotation
				End Site
				{
					OFFSET -0.019035 -0.081498 0.194081
				}
			}
		}
	}
}
MOTION
Frames: 4
Frame Time: 0.041667
0.014966 -0.026447 0.055958 -0.000000 0.575097 -0.000000 -0.000000 -0.000000 0.000000 -6.936277 0.023186 -0.204509 10.002634 1.560224 -0.191625 0.000000 0.295895 -0.036331 13.393039 5.833257 0.159699 -0.000000 0.216790 -0.003784 1.658046 0.000003 0.000000 -0.000000 0.295896 -0.036331 0.047618 -0.000161 0.388596 0.185653 -0.000000 -0.000000 -0.358094 -0.403599 -77.252704 0.320814 0.001104 -0.000133 -6.822951 -28.241492 -27.697814 0.000000 0.295896 -0.036331 0.041151 -0.000121 0.335617 -0.185652 0.000000 -0.000000 -3.533005 4.389334 77.441463 -0.315270 0.001104 -0.000133 -4.875103 27.324699 20.501629 0.000000 -0.000000 0.000000 -0.000022 -0.000000 -0.486165 0.000000 0.000000 0.000000 0.000000 -0.000000 -0.486165 0.116043 -0.000985 0.000000 9.103478 0.277953 -2.509625 0.022487 -0.429086 0.000000 -2.079893 -0.112677 0.201145 0.019697 -0.375848 0.000000 -9.559023 -2.188505 -0.168637 -0.116043 0.000985 -0.000000 10.302390 -0.458416 0.918176 -0.022775 -0.434573 0.000000 -2.294890 0.135369 -0.750562 -0.020023 -0.382054 0.000000 -14.345344 3.090131 0.288537 
0.014764 -0.026336 0.056066 -0.000000 0.534568 -0.000000 -0.000000 -0.000000 0.000000 -6.941699 0.023916 -0.210858 10.002877 1.628812 -0.200045 0.000000 0.295895 -0.036331 13.441289 5.699826 0.164453 -0.000000 0.216789 -0.003784 1.605475 0.000002 0.000003 -0.000000 0.295895 -0.036331 0.049192 -0.000173 0.400268 0.185652 -0.000000 -0.000000 -0.369980 -0.418662 -77.243723 0.320814 0.001104 -0.000133 -6.805574 -28.215803 -27.655947 -0.000000 0.295895 -0.036331 0.042645 -0.000126 0.347256 -0.185652 -0.000000 0.000000 -3.535943 4.393501 77.435016 -0.315270 0.001104 -0.000133 -4.861435 27.258674 20.499447 -0.000000 -0.000000 -0.000000 -0.000028 -0.000000 -0.484429 -0.000000 0.000000 -0.000000 0.000000 -0.000000 -0.484399 0.116043 -0.000981 0.000000 9.123824 0.277684 -2.520852 0.022487 -0.429086 0.000000 -2.097890 -0.114155 0.228632 0.019697 -0.375848 0.000000 -9.495534 -2.185701 -0.172376 -0.116043 0.000981 -0.000000 10.293290 -0.457318 0.925851 -0.022775 -0.434573 0.000000 -2.266143 0.133439 -0.738948 -0.020023 -0.382054 0.000000 -14.364120 3.090474 0.287315 
0.014608 -0.026241 0.056146 -0.000000 0.491345 -0.000000 0.000000 -0.000000 0.000000 -6.941251 0.024114 -0.212609 10.002986 1.695143 -0.208217 0.000000 0.295895 -0.036331 13.471300 5.576121 0.163086 0.000000 0.216790 -0.003784 1.562970 -0.000003 0.000001 -0.000000 0.295896 -0.036331 0.050376 -0.000179 0.409977 0.185652 0.000000 -0.000000 -0.373893 -0.423645 -77.235137 0.320814 0.001104 -0.000133 -6.796498 -28.207165 -27.628807 -0.000000 0.295896 -0.036331 0.043804 -0.000135 0.357003 -0.185652 0.000000 0.000000 -3.531164 4.387725 77.432666 -0.315270 0.001104 -0.000133 -4.853900 27.234179 20.488105 0.000000 -0.000000 0.000000 -0.000009 -0.000000 -0.478307 0.000000 0.000000 0.000000 0.000000 -0.000000 -0.478337 0.116043 -0.000969 0.000000 9.142408 0.277005 -2.536391 0.022487 -0.429086 0.000000 -2.115739 -0.115685 0.258830 0.019697 -0.375848 0.000000 -9.436840 -2.178978 -0.173668 -0.116043 0.000969 -0.000000 10.279629 -0.456817 0.924612 -0.022775 -0.434573 0.000000 -2.233846 0.131134 -0.718418 -0.020023 -0.382054 0.000000 -14.367549 3.088029 0.285662 
0.014495 -0.026179 0.056202 -0.000000 0.457397 -0.000000 -0.000000 -0.000000 -0.000000 -6.936166 0.023968 -0.211413 10.003381 1.746216 -0.214476 0.000000 0.295895 -0.036331 13.482586 5.472631 0.156477 -0.000000 0.216790 -0.003784 1.533878 -0.000006 0.000001 -0.000000 0.295896 -0.036331 0.051153 -0.000190 0.416528 0.185653 -0.000000 -0.000000 -0.373020 -0.422608 -77.227248 0.320814 0.001104 -0.000133 -6.795138 -28.212008 -27.618150 -0.000000 0.295896 -0.036331 0.044602 -0.000143 0.363553 -0.185652 -0.000000 -0.000000 -3.524363 4.379329 77.430761 -0.315270 0.001104 -0.000133 -4.850356 27.231365 20.475311 0.000000 -0.000000 -0.000000 -0.000035 -0.000000 -0.474069 0.000000 0.000000 -0.000000 -0.000000 -0.000000 -0.474099 0.116043 -0.000960 0.000000 9.156189 0.276578 -2.546927 0.022487 -0.429086 0.000000 -2.128118 -0.116708 0.277394 0.019697 -0.375848 0.000000 -9.396354 -2.172047 -0.173379 -0.116043 0.000960 -0.000000 10.267412 -0.456737 0.919460 -0.022775 -0.434573 0.000000 -2.207234 0.129139 -0.695888 -0.020023 -0.382054 0.000000 -14.357327 3.082443 0.283182 
